<?xml version="1.0" encoding="UTF-8" standalone="no"?>
<svg
   xmlns:dc="http://purl.org/dc/elements/1.1/"
   xmlns:cc="http://creativecommons.org/ns#"
   xmlns:rdf="http://www.w3.org/1999/02/22-rdf-syntax-ns#"
   xmlns:svg="http://www.w3.org/2000/svg"
   xmlns="http://www.w3.org/2000/svg"
   xmlns:sodipodi="http://sodipodi.sourceforge.net/DTD/sodipodi-0.dtd"
   xmlns:inkscape="http://www.inkscape.org/namespaces/inkscape"
   width="36.958mm"
   height="36.958111mm"
   viewBox="0 0 36.958 36.958112"
   version="1.1"
   id="svg8"
   inkscape:version="1.0 (4035a4fb49, 2020-05-01)"
   sodipodi:docname="pinhole-active.svg">
  <defs
     id="defs2" />
  <sodipodi:namedview
     id="base"
     pagecolor="#ffffff"
     bordercolor="#666666"
     borderopacity="1.0"
     inkscape:pageopacity="0.0"
     inkscape:pageshadow="2"
     inkscape:zoom="5.6"
     inkscape:cx="40.83945"
     inkscape:cy="69.274474"
     inkscape:document-units="mm"
     inkscape:current-layer="layer1"
     showgrid="false"
     inkscape:snap-midpoints="true"
     inkscape:snap-intersection-paths="true"
     inkscape:object-paths="true"
     inkscape:snap-smooth-nodes="true"
     inkscape:window-width="2560"
     inkscape:window-height="1380"
     inkscape:window-x="0"
     inkscape:window-y="0"
     inkscape:window-maximized="1"
     fit-margin-top="0"
     fit-margin-left="0"
     fit-margin-right="0"
     fit-margin-bottom="0"
     inkscape:document-rotation="0" />
  <metadata
     id="metadata5">
    <rdf:RDF>
      <cc:Work
         rdf:about="">
        <dc:format>image/svg+xml</dc:format>
        <dc:type
           rdf:resource="http://purl.org/dc/dcmitype/StillImage" />
        <dc:title />
      </cc:Work>
    </rdf:RDF>
  </metadata>
  <g
     inkscape:label="Layer 1"
     inkscape:groupmode="layer"
     id="layer1"
     transform="translate(-77.834766,-68.510052)">
    <path
       id="path930"
       transform="matrix(0.26458333,0,0,0.26458333,77.834766,68.510052)"
       d="M 69.841797 2.6679688 A 67.175226 67.175233 0 0 0 2.6660156 69.841797 A 67.175226 67.175233 0 0 0 69.841797 137.01758 A 67.175226 67.175233 0 0 0 137.01758 69.841797 A 67.175226 67.175233 0 0 0 69.841797 2.6679688 z M 69.841797 46.736328 A 23.106207 23.106211 0 0 1 92.947266 69.841797 A 23.106207 23.106211 0 0 1 69.841797 92.949219 A 23.106207 23.106211 0 0 1 46.736328 69.841797 A 23.106207 23.106211 0 0 1 69.841797 46.736328 z "
       style="fill:#7ec3eb;fill-opacity:1;stroke:#ffffff;stroke-width:5.33333397;stroke-linecap:round;stroke-linejoin:round;stroke-miterlimit:4;stroke-dasharray:none;stroke-opacity:1" />
  </g>
</svg>
