<?xml version="1.0" encoding="UTF-8" standalone="no"?>
<!-- Generator: Adobe Illustrator 21.0.0, SVG Export Plug-In . SVG Version: 6.00 Build 0)  -->

<svg
   xmlns:dc="http://purl.org/dc/elements/1.1/"
   xmlns:cc="http://creativecommons.org/ns#"
   xmlns:rdf="http://www.w3.org/1999/02/22-rdf-syntax-ns#"
   xmlns:svg="http://www.w3.org/2000/svg"
   xmlns="http://www.w3.org/2000/svg"
   xmlns:sodipodi="http://sodipodi.sourceforge.net/DTD/sodipodi-0.dtd"
   xmlns:inkscape="http://www.inkscape.org/namespaces/inkscape"
   version="1.1"
   id="Layer_1"
   x="0px"
   y="0px"
   viewBox="0 0 256 256"
   style="enable-background:new 0 0 256 256;"
   xml:space="preserve"
   sodipodi:docname="profex-redo.svg"
   inkscape:version="0.92.4 5da689c313, 2019-01-14"><metadata
   id="metadata708"><rdf:RDF><cc:Work
       rdf:about=""><dc:format>image/svg+xml</dc:format><dc:type
         rdf:resource="http://purl.org/dc/dcmitype/StillImage" /></cc:Work></rdf:RDF></metadata><defs
   id="defs706" /><sodipodi:namedview
   pagecolor="#ffffff"
   bordercolor="#666666"
   borderopacity="1"
   objecttolerance="10"
   gridtolerance="10"
   guidetolerance="10"
   inkscape:pageopacity="0"
   inkscape:pageshadow="2"
   inkscape:window-width="2560"
   inkscape:window-height="1375"
   id="namedview704"
   showgrid="false"
   inkscape:zoom="0.921875"
   inkscape:cx="-642.87803"
   inkscape:cy="19.885477"
   inkscape:window-x="0"
   inkscape:window-y="0"
   inkscape:window-maximized="1"
   inkscape:current-layer="Layer_1" />
<style
   type="text/css"
   id="style2">
	.st0{fill:#7EC3EB;}
	.st1{fill:#797972;}
	.st2{fill:#797972;stroke:#797972;stroke-miterlimit:10;}
	.st3{fill-rule:evenodd;clip-rule:evenodd;fill:#7EC3EB;}
	.st4{fill:none;}
	.st5{fill:#7EC3EB;stroke:#7EC3EB;stroke-miterlimit:10;}
	.st6{fill:none;stroke:#797972;stroke-width:2;stroke-miterlimit:10;}
	.st7{fill:#9FD8D3;}
	.st8{fill:#EAE445;stroke:#797972;stroke-miterlimit:10;}
	.st9{fill:none;stroke:#6B6B6B;stroke-width:2;stroke-miterlimit:10;}
	.st10{fill:#7EC3EB;stroke:#6B6C6C;stroke-width:2;stroke-miterlimit:10;}
	.st11{fill:#7EC3EB;stroke:#797972;stroke-miterlimit:10;}
	.st12{fill:none;stroke:#797972;stroke-miterlimit:10;}
	.st13{fill:#FFFFFF;stroke:#797972;stroke-width:2;stroke-miterlimit:10;}
	.st14{fill:#7B7A72;}
	.st15{fill:#3FC3F1;}
	.st16{fill:#FFFFFF;}
	.st17{fill:none;stroke:#7B7A72;stroke-miterlimit:10;}
</style>









































<path
   class="st6"
   d="m 210.77734,82.62399 c 0,-0.873457 -0.42428,-1.746913 -1.10313,-2.270986 L 141.1103,26.111419 C 140.60117,25.674691 140.00717,25.5 139.41318,25.5 c -0.594,0 -1.18799,0.174691 -1.69713,0.611419 -1.01827,0.78611 -1.3577,2.183638 -0.93342,3.319131 l 13.83158,35.89902 v 1.484874 c -0.59399,-0.08735 -1.27284,-0.08735 -1.95169,-0.08735 v 0.174692 h -28.85115 c -41.155319,0 -74.58871,34.414154 -74.58871,76.776734 v 10.04474 c 0,42.36259 33.433391,76.77674 74.58871,76.77674 h 74.50385 v -35.46229 h -74.50385 c -22.147503,0 -40.137043,-18.51726 -40.137043,-41.31445 v -10.04474 c 0,-22.79719 17.98954,-41.31444 40.137043,-41.31444 h 29.86942 l -12.89816,33.54069 c -0.42428,1.22284 -0.0848,2.53302 0.93342,3.31913 1.01828,0.78611 2.37598,0.78611 3.39425,0 l 68.56391,-54.24158 c 0.67885,-0.61142 1.10313,-1.48488 1.10313,-2.35833 z"
   id="path366"
   style="fill:none;stroke:#797972;stroke-width:14.99999905;stroke-miterlimit:10;stroke-dasharray:none"
   inkscape:connector-curvature="0" />

































</svg>